<?xml version="1.0" standalone="no"?>
 <!DOCTYPE svg PUBLIC "-//W3C//DTD SVG 1.1//EN" 
 "http://www.w3.org/Graphics/SVG/1.1/DTD/svg11.dtd"> 
<svg xmlns="http://www.w3.org/2000/svg" version="1.1" 
    width="29.7002cm" height="21.0007cm" viewBox="0 0 116930 82680 ">
<title>SVG Picture created as Mega1284RFM69_PCB-F_SilkS.svg date 2015/01/04 10:47:58 </title>
  <desc>Picture generated by PCBNEW </desc>
<g style="fill:#000000; fill-opacity:1;stroke:#000000; stroke-opacity:1;
stroke-linecap:round; stroke-linejoin:round; "
 transform="translate(0 0) scale(1 1)">
</g>
<g style="fill:#000000; fill-opacity:0.0; 
stroke:#000000; stroke-width:19.685; stroke-opacity:1; 
stroke-linecap:round; stroke-linejoin:round;">
</g>
<g style="fill:#000000; fill-opacity:0.0; 
stroke:#000000; stroke-width:59.0551; stroke-opacity:1; 
stroke-linecap:round; stroke-linejoin:round;">
<rect x="69685.9" y="65357.2" width="42519.7" height="12598.4" rx="0" />
</g>
<g style="fill:#000000; fill-opacity:0.0; 
stroke:#000000; stroke-width:19.685; stroke-opacity:1; 
stroke-linecap:round; stroke-linejoin:round;">
</g>
<g style="fill:#000000; fill-opacity:0.0; 
stroke:#000000; stroke-width:59.0551; stroke-opacity:1; 
stroke-linecap:round; stroke-linejoin:round;">
<rect x="3937.01" y="3937.01" width="109056" height="74806" rx="0" />
</g>
<g style="fill:#000000; fill-opacity:0.0; 
stroke:#000000; stroke-width:19.685; stroke-opacity:1; 
stroke-linecap:round; stroke-linejoin:round;">
</g>
<g style="fill:#000000; fill-opacity:0.0; 
stroke:#000000; stroke-width:59.0551; stroke-opacity:1; 
stroke-linecap:round; stroke-linejoin:round;">
<rect x="4724.41" y="4724.41" width="107481" height="73231.2" rx="0" />
</g>
<g style="fill:#000000; fill-opacity:0.0; 
stroke:#000000; stroke-width:19.685; stroke-opacity:1; 
stroke-linecap:round; stroke-linejoin:round;">
</g>
<g style="fill:#000000; fill-opacity:0.0; 
stroke:#000000; stroke-width:59.0551; stroke-opacity:1; 
stroke-linecap:round; stroke-linejoin:round;">
<path d="M23622 4724
L23622 3937
" />
</g>
<g style="fill:#000000; fill-opacity:0.0; 
stroke:#000000; stroke-width:19.685; stroke-opacity:1; 
stroke-linecap:round; stroke-linejoin:round;">
</g>
<g style="fill:#000000; fill-opacity:0.0; 
stroke:#000000; stroke-width:59.0551; stroke-opacity:1; 
stroke-linecap:round; stroke-linejoin:round;">
<path d="M43307 4724
L43307 3937
" />
</g>
<g style="fill:#000000; fill-opacity:0.0; 
stroke:#000000; stroke-width:19.685; stroke-opacity:1; 
stroke-linecap:round; stroke-linejoin:round;">
</g>
<g style="fill:#000000; fill-opacity:0.0; 
stroke:#000000; stroke-width:59.0551; stroke-opacity:1; 
stroke-linecap:round; stroke-linejoin:round;">
<path d="M62992 4724
L62992 3937
" />
</g>
<g style="fill:#000000; fill-opacity:0.0; 
stroke:#000000; stroke-width:19.685; stroke-opacity:1; 
stroke-linecap:round; stroke-linejoin:round;">
</g>
<g style="fill:#000000; fill-opacity:0.0; 
stroke:#000000; stroke-width:59.0551; stroke-opacity:1; 
stroke-linecap:round; stroke-linejoin:round;">
<path d="M82677 4724
L82677 3937
" />
</g>
<g style="fill:#000000; fill-opacity:0.0; 
stroke:#000000; stroke-width:19.685; stroke-opacity:1; 
stroke-linecap:round; stroke-linejoin:round;">
</g>
<g style="fill:#000000; fill-opacity:0.0; 
stroke:#000000; stroke-width:59.0551; stroke-opacity:1; 
stroke-linecap:round; stroke-linejoin:round;">
<path d="M102362 4724
L102362 3937
" />
</g>
<g style="fill:#000000; fill-opacity:0.0; 
stroke:#000000; stroke-width:19.685; stroke-opacity:1; 
stroke-linecap:round; stroke-linejoin:round;">
</g>
<g style="fill:#000000; fill-opacity:0.0; 
stroke:#000000; stroke-width:59.0551; stroke-opacity:1; 
stroke-linecap:round; stroke-linejoin:round;">
<path d="M14169 4562
L13877 4562
" />
<path d="M14023 4562
L14023 4050
L13974 4123
L13925 4172
L13877 4196
" />
</g>
<g style="fill:#000000; fill-opacity:0.0; 
stroke:#000000; stroke-width:19.685; stroke-opacity:1; 
stroke-linecap:round; stroke-linejoin:round;">
</g>
<g style="fill:#000000; fill-opacity:0.0; 
stroke:#000000; stroke-width:59.0551; stroke-opacity:1; 
stroke-linecap:round; stroke-linejoin:round;">
<path d="M33562 4099
L33586 4074
L33635 4050
L33757 4050
L33805 4074
L33830 4099
L33854 4147
L33854 4196
L33830 4269
L33537 4562
L33854 4562
" />
</g>
<g style="fill:#000000; fill-opacity:0.0; 
stroke:#000000; stroke-width:19.685; stroke-opacity:1; 
stroke-linecap:round; stroke-linejoin:round;">
</g>
<g style="fill:#000000; fill-opacity:0.0; 
stroke:#000000; stroke-width:59.0551; stroke-opacity:1; 
stroke-linecap:round; stroke-linejoin:round;">
<path d="M53222 4050
L53539 4050
L53368 4245
L53442 4245
L53490 4269
L53515 4294
L53539 4342
L53539 4464
L53515 4513
L53490 4537
L53442 4562
L53295 4562
L53247 4537
L53222 4513
" />
</g>
<g style="fill:#000000; fill-opacity:0.0; 
stroke:#000000; stroke-width:19.685; stroke-opacity:1; 
stroke-linecap:round; stroke-linejoin:round;">
</g>
<g style="fill:#000000; fill-opacity:0.0; 
stroke:#000000; stroke-width:59.0551; stroke-opacity:1; 
stroke-linecap:round; stroke-linejoin:round;">
<path d="M73175 4221
L73175 4562
" />
<path d="M73053 4026
L72932 4391
L73248 4391
" />
</g>
<g style="fill:#000000; fill-opacity:0.0; 
stroke:#000000; stroke-width:19.685; stroke-opacity:1; 
stroke-linecap:round; stroke-linejoin:round;">
</g>
<g style="fill:#000000; fill-opacity:0.0; 
stroke:#000000; stroke-width:59.0551; stroke-opacity:1; 
stroke-linecap:round; stroke-linejoin:round;">
<path d="M92885 4050
L92641 4050
L92617 4294
L92641 4269
L92690 4245
L92812 4245
L92860 4269
L92885 4294
L92909 4342
L92909 4464
L92885 4513
L92860 4537
L92812 4562
L92690 4562
L92641 4537
L92617 4513
" />
</g>
<g style="fill:#000000; fill-opacity:0.0; 
stroke:#000000; stroke-width:19.685; stroke-opacity:1; 
stroke-linecap:round; stroke-linejoin:round;">
</g>
<g style="fill:#000000; fill-opacity:0.0; 
stroke:#000000; stroke-width:59.0551; stroke-opacity:1; 
stroke-linecap:round; stroke-linejoin:round;">
<path d="M112545 4050
L112448 4050
L112399 4074
L112375 4099
L112326 4172
L112302 4269
L112302 4464
L112326 4513
L112350 4537
L112399 4562
L112497 4562
L112545 4537
L112570 4513
L112594 4464
L112594 4342
L112570 4294
L112545 4269
L112497 4245
L112399 4245
L112350 4269
L112326 4294
L112302 4342
" />
</g>
<g style="fill:#000000; fill-opacity:0.0; 
stroke:#000000; stroke-width:19.685; stroke-opacity:1; 
stroke-linecap:round; stroke-linejoin:round;">
</g>
<g style="fill:#000000; fill-opacity:0.0; 
stroke:#000000; stroke-width:59.0551; stroke-opacity:1; 
stroke-linecap:round; stroke-linejoin:round;">
<path d="M23622 77955
L23622 78742
" />
</g>
<g style="fill:#000000; fill-opacity:0.0; 
stroke:#000000; stroke-width:19.685; stroke-opacity:1; 
stroke-linecap:round; stroke-linejoin:round;">
</g>
<g style="fill:#000000; fill-opacity:0.0; 
stroke:#000000; stroke-width:59.0551; stroke-opacity:1; 
stroke-linecap:round; stroke-linejoin:round;">
<path d="M43307 77955
L43307 78742
" />
</g>
<g style="fill:#000000; fill-opacity:0.0; 
stroke:#000000; stroke-width:19.685; stroke-opacity:1; 
stroke-linecap:round; stroke-linejoin:round;">
</g>
<g style="fill:#000000; fill-opacity:0.0; 
stroke:#000000; stroke-width:59.0551; stroke-opacity:1; 
stroke-linecap:round; stroke-linejoin:round;">
<path d="M62992 77955
L62992 78742
" />
</g>
<g style="fill:#000000; fill-opacity:0.0; 
stroke:#000000; stroke-width:19.685; stroke-opacity:1; 
stroke-linecap:round; stroke-linejoin:round;">
</g>
<g style="fill:#000000; fill-opacity:0.0; 
stroke:#000000; stroke-width:59.0551; stroke-opacity:1; 
stroke-linecap:round; stroke-linejoin:round;">
<path d="M82677 77955
L82677 78742
" />
</g>
<g style="fill:#000000; fill-opacity:0.0; 
stroke:#000000; stroke-width:19.685; stroke-opacity:1; 
stroke-linecap:round; stroke-linejoin:round;">
</g>
<g style="fill:#000000; fill-opacity:0.0; 
stroke:#000000; stroke-width:59.0551; stroke-opacity:1; 
stroke-linecap:round; stroke-linejoin:round;">
<path d="M102362 77955
L102362 78742
" />
</g>
<g style="fill:#000000; fill-opacity:0.0; 
stroke:#000000; stroke-width:19.685; stroke-opacity:1; 
stroke-linecap:round; stroke-linejoin:round;">
</g>
<g style="fill:#000000; fill-opacity:0.0; 
stroke:#000000; stroke-width:59.0551; stroke-opacity:1; 
stroke-linecap:round; stroke-linejoin:round;">
<path d="M14169 78580
L13877 78580
" />
<path d="M14023 78580
L14023 78069
L13974 78142
L13925 78190
L13877 78215
" />
</g>
<g style="fill:#000000; fill-opacity:0.0; 
stroke:#000000; stroke-width:19.685; stroke-opacity:1; 
stroke-linecap:round; stroke-linejoin:round;">
</g>
<g style="fill:#000000; fill-opacity:0.0; 
stroke:#000000; stroke-width:59.0551; stroke-opacity:1; 
stroke-linecap:round; stroke-linejoin:round;">
<path d="M33562 78117
L33586 78093
L33635 78069
L33757 78069
L33805 78093
L33830 78117
L33854 78166
L33854 78215
L33830 78288
L33537 78580
L33854 78580
" />
</g>
<g style="fill:#000000; fill-opacity:0.0; 
stroke:#000000; stroke-width:19.685; stroke-opacity:1; 
stroke-linecap:round; stroke-linejoin:round;">
</g>
<g style="fill:#000000; fill-opacity:0.0; 
stroke:#000000; stroke-width:59.0551; stroke-opacity:1; 
stroke-linecap:round; stroke-linejoin:round;">
<path d="M53222 78069
L53539 78069
L53368 78263
L53442 78263
L53490 78288
L53515 78312
L53539 78361
L53539 78483
L53515 78532
L53490 78556
L53442 78580
L53295 78580
L53247 78556
L53222 78532
" />
</g>
<g style="fill:#000000; fill-opacity:0.0; 
stroke:#000000; stroke-width:19.685; stroke-opacity:1; 
stroke-linecap:round; stroke-linejoin:round;">
</g>
<g style="fill:#000000; fill-opacity:0.0; 
stroke:#000000; stroke-width:59.0551; stroke-opacity:1; 
stroke-linecap:round; stroke-linejoin:round;">
<path d="M73175 78239
L73175 78580
" />
<path d="M73053 78044
L72932 78410
L73248 78410
" />
</g>
<g style="fill:#000000; fill-opacity:0.0; 
stroke:#000000; stroke-width:19.685; stroke-opacity:1; 
stroke-linecap:round; stroke-linejoin:round;">
</g>
<g style="fill:#000000; fill-opacity:0.0; 
stroke:#000000; stroke-width:59.0551; stroke-opacity:1; 
stroke-linecap:round; stroke-linejoin:round;">
<path d="M92885 78069
L92641 78069
L92617 78312
L92641 78288
L92690 78263
L92812 78263
L92860 78288
L92885 78312
L92909 78361
L92909 78483
L92885 78532
L92860 78556
L92812 78580
L92690 78580
L92641 78556
L92617 78532
" />
</g>
<g style="fill:#000000; fill-opacity:0.0; 
stroke:#000000; stroke-width:19.685; stroke-opacity:1; 
stroke-linecap:round; stroke-linejoin:round;">
</g>
<g style="fill:#000000; fill-opacity:0.0; 
stroke:#000000; stroke-width:59.0551; stroke-opacity:1; 
stroke-linecap:round; stroke-linejoin:round;">
<path d="M112545 78069
L112448 78069
L112399 78093
L112375 78117
L112326 78190
L112302 78288
L112302 78483
L112326 78532
L112350 78556
L112399 78580
L112497 78580
L112545 78556
L112570 78532
L112594 78483
L112594 78361
L112570 78312
L112545 78288
L112497 78263
L112399 78263
L112350 78288
L112326 78312
L112302 78361
" />
</g>
<g style="fill:#000000; fill-opacity:0.0; 
stroke:#000000; stroke-width:19.685; stroke-opacity:1; 
stroke-linecap:round; stroke-linejoin:round;">
</g>
<g style="fill:#000000; fill-opacity:0.0; 
stroke:#000000; stroke-width:59.0551; stroke-opacity:1; 
stroke-linecap:round; stroke-linejoin:round;">
<path d="M3937 23622
L4724 23622
" />
</g>
<g style="fill:#000000; fill-opacity:0.0; 
stroke:#000000; stroke-width:19.685; stroke-opacity:1; 
stroke-linecap:round; stroke-linejoin:round;">
</g>
<g style="fill:#000000; fill-opacity:0.0; 
stroke:#000000; stroke-width:59.0551; stroke-opacity:1; 
stroke-linecap:round; stroke-linejoin:round;">
<path d="M3937 43307
L4724 43307
" />
</g>
<g style="fill:#000000; fill-opacity:0.0; 
stroke:#000000; stroke-width:19.685; stroke-opacity:1; 
stroke-linecap:round; stroke-linejoin:round;">
</g>
<g style="fill:#000000; fill-opacity:0.0; 
stroke:#000000; stroke-width:59.0551; stroke-opacity:1; 
stroke-linecap:round; stroke-linejoin:round;">
<path d="M3937 62992
L4724 62992
" />
</g>
<g style="fill:#000000; fill-opacity:0.0; 
stroke:#000000; stroke-width:19.685; stroke-opacity:1; 
stroke-linecap:round; stroke-linejoin:round;">
</g>
<g style="fill:#000000; fill-opacity:0.0; 
stroke:#000000; stroke-width:59.0551; stroke-opacity:1; 
stroke-linecap:round; stroke-linejoin:round;">
<path d="M4208 13864
L4452 13864
" />
<path d="M4160 14011
L4330 13499
L4501 14011
" />
</g>
<g style="fill:#000000; fill-opacity:0.0; 
stroke:#000000; stroke-width:19.685; stroke-opacity:1; 
stroke-linecap:round; stroke-linejoin:round;">
</g>
<g style="fill:#000000; fill-opacity:0.0; 
stroke:#000000; stroke-width:59.0551; stroke-opacity:1; 
stroke-linecap:round; stroke-linejoin:round;">
<path d="M4367 33428
L4440 33452
L4464 33476
L4489 33525
L4489 33598
L4464 33647
L4440 33671
L4391 33696
L4196 33696
L4196 33184
L4367 33184
L4416 33208
L4440 33233
L4464 33281
L4464 33330
L4440 33379
L4416 33403
L4367 33428
L4196 33428
" />
</g>
<g style="fill:#000000; fill-opacity:0.0; 
stroke:#000000; stroke-width:19.685; stroke-opacity:1; 
stroke-linecap:round; stroke-linejoin:round;">
</g>
<g style="fill:#000000; fill-opacity:0.0; 
stroke:#000000; stroke-width:59.0551; stroke-opacity:1; 
stroke-linecap:round; stroke-linejoin:round;">
<path d="M4489 53332
L4464 53356
L4391 53381
L4342 53381
L4269 53356
L4221 53308
L4196 53259
L4172 53161
L4172 53088
L4196 52991
L4221 52942
L4269 52893
L4342 52869
L4391 52869
L4464 52893
L4489 52918
" />
</g>
<g style="fill:#000000; fill-opacity:0.0; 
stroke:#000000; stroke-width:19.685; stroke-opacity:1; 
stroke-linecap:round; stroke-linejoin:round;">
</g>
<g style="fill:#000000; fill-opacity:0.0; 
stroke:#000000; stroke-width:59.0551; stroke-opacity:1; 
stroke-linecap:round; stroke-linejoin:round;">
<path d="M4196 73066
L4196 72554
L4318 72554
L4391 72578
L4440 72627
L4464 72676
L4489 72773
L4489 72846
L4464 72944
L4440 72993
L4391 73041
L4318 73066
L4196 73066
" />
</g>
<g style="fill:#000000; fill-opacity:0.0; 
stroke:#000000; stroke-width:19.685; stroke-opacity:1; 
stroke-linecap:round; stroke-linejoin:round;">
</g>
<g style="fill:#000000; fill-opacity:0.0; 
stroke:#000000; stroke-width:59.0551; stroke-opacity:1; 
stroke-linecap:round; stroke-linejoin:round;">
<path d="M112992 23622
L112205 23622
" />
</g>
<g style="fill:#000000; fill-opacity:0.0; 
stroke:#000000; stroke-width:19.685; stroke-opacity:1; 
stroke-linecap:round; stroke-linejoin:round;">
</g>
<g style="fill:#000000; fill-opacity:0.0; 
stroke:#000000; stroke-width:59.0551; stroke-opacity:1; 
stroke-linecap:round; stroke-linejoin:round;">
<path d="M112992 43307
L112205 43307
" />
</g>
<g style="fill:#000000; fill-opacity:0.0; 
stroke:#000000; stroke-width:19.685; stroke-opacity:1; 
stroke-linecap:round; stroke-linejoin:round;">
</g>
<g style="fill:#000000; fill-opacity:0.0; 
stroke:#000000; stroke-width:59.0551; stroke-opacity:1; 
stroke-linecap:round; stroke-linejoin:round;">
<path d="M112992 62992
L112205 62992
" />
</g>
<g style="fill:#000000; fill-opacity:0.0; 
stroke:#000000; stroke-width:19.685; stroke-opacity:1; 
stroke-linecap:round; stroke-linejoin:round;">
</g>
<g style="fill:#000000; fill-opacity:0.0; 
stroke:#000000; stroke-width:59.0551; stroke-opacity:1; 
stroke-linecap:round; stroke-linejoin:round;">
<path d="M112477 13864
L112721 13864
" />
<path d="M112428 14011
L112599 13499
L112769 14011
" />
</g>
<g style="fill:#000000; fill-opacity:0.0; 
stroke:#000000; stroke-width:19.685; stroke-opacity:1; 
stroke-linecap:round; stroke-linejoin:round;">
</g>
<g style="fill:#000000; fill-opacity:0.0; 
stroke:#000000; stroke-width:59.0551; stroke-opacity:1; 
stroke-linecap:round; stroke-linejoin:round;">
<path d="M112635 33428
L112708 33452
L112733 33476
L112757 33525
L112757 33598
L112733 33647
L112708 33671
L112660 33696
L112465 33696
L112465 33184
L112635 33184
L112684 33208
L112708 33233
L112733 33281
L112733 33330
L112708 33379
L112684 33403
L112635 33428
L112465 33428
" />
</g>
<g style="fill:#000000; fill-opacity:0.0; 
stroke:#000000; stroke-width:19.685; stroke-opacity:1; 
stroke-linecap:round; stroke-linejoin:round;">
</g>
<g style="fill:#000000; fill-opacity:0.0; 
stroke:#000000; stroke-width:59.0551; stroke-opacity:1; 
stroke-linecap:round; stroke-linejoin:round;">
<path d="M112757 53332
L112733 53356
L112660 53381
L112611 53381
L112538 53356
L112489 53308
L112465 53259
L112440 53161
L112440 53088
L112465 52991
L112489 52942
L112538 52893
L112611 52869
L112660 52869
L112733 52893
L112757 52918
" />
</g>
<g style="fill:#000000; fill-opacity:0.0; 
stroke:#000000; stroke-width:19.685; stroke-opacity:1; 
stroke-linecap:round; stroke-linejoin:round;">
</g>
<g style="fill:#000000; fill-opacity:0.0; 
stroke:#000000; stroke-width:59.0551; stroke-opacity:1; 
stroke-linecap:round; stroke-linejoin:round;">
<path d="M112465 73066
L112465 72554
L112587 72554
L112660 72578
L112708 72627
L112733 72676
L112757 72773
L112757 72846
L112733 72944
L112708 72993
L112660 73041
L112587 73066
L112465 73066
" />
</g>
<g style="fill:#000000; fill-opacity:0.0; 
stroke:#000000; stroke-width:19.685; stroke-opacity:1; 
stroke-linecap:round; stroke-linejoin:round;">
</g>
<g style="fill:#000000; fill-opacity:0.0; 
stroke:#000000; stroke-width:59.0551; stroke-opacity:1; 
stroke-linecap:round; stroke-linejoin:round;">
<path d="M78881 76293
L78881 75703
L79022 75703
L79106 75731
L79162 75787
L79190 75843
L79219 75956
L79219 76040
L79190 76153
L79162 76209
L79106 76265
L79022 76293
L78881 76293
" />
<path d="M79725 76293
L79725 75984
L79697 75928
L79640 75899
L79528 75899
L79472 75928
" />
<path d="M79725 76265
L79669 76293
L79528 76293
L79472 76265
L79444 76209
L79444 76153
L79472 76096
L79528 76068
L79669 76068
L79725 76040
" />
<path d="M79922 75899
L80147 75899
" />
<path d="M80006 75703
L80006 76209
L80034 76265
L80090 76293
L80147 76293
" />
<path d="M80568 76265
L80512 76293
L80400 76293
L80343 76265
L80315 76209
L80315 75984
L80343 75928
L80400 75899
L80512 75899
L80568 75928
L80597 75984
L80597 76040
L80315 76096
" />
<path d="M80850 76237
L80878 76265
L80850 76293
L80822 76265
L80850 76237
L80850 76293
" />
<path d="M80850 75928
L80878 75956
L80850 75984
L80822 75956
L80850 75928
L80850 75984
" />
<path d="M81693 75703
L81750 75703
L81806 75731
L81834 75759
L81862 75815
L81890 75928
L81890 76068
L81862 76181
L81834 76237
L81806 76265
L81750 76293
L81693 76293
L81637 76265
L81609 76237
L81581 76181
L81553 76068
L81553 75928
L81581 75815
L81609 75759
L81637 75731
L81693 75703
" />
<path d="M82396 75899
L82396 76293
" />
<path d="M82256 75674
L82115 76096
L82481 76096
" />
<path d="M83324 75703
L83324 76124
L83296 76209
L83240 76265
L83156 76293
L83099 76293
" />
<path d="M83859 76293
L83859 75984
L83831 75928
L83774 75899
L83662 75899
L83606 75928
" />
<path d="M83859 76265
L83802 76293
L83662 76293
L83606 76265
L83577 76209
L83577 76153
L83606 76096
L83662 76068
L83802 76068
L83859 76040
" />
<path d="M84140 75899
L84140 76293
" />
<path d="M84140 75956
L84168 75928
L84224 75899
L84309 75899
L84365 75928
L84393 75984
L84393 76293
" />
<path d="M84927 75899
L84927 76293
" />
<path d="M84674 75899
L84674 76209
L84702 76265
L84759 76293
L84843 76293
L84899 76265
L84927 76237
" />
<path d="M85462 76293
L85462 75984
L85433 75928
L85377 75899
L85265 75899
L85208 75928
" />
<path d="M85462 76265
L85405 76293
L85265 76293
L85208 76265
L85180 76209
L85180 76153
L85208 76096
L85265 76068
L85405 76068
L85462 76040
" />
<path d="M85743 76293
L85743 75899
" />
<path d="M85743 76012
L85771 75956
L85799 75928
L85855 75899
L85912 75899
" />
<path d="M86052 75899
L86193 76293
" />
<path d="M86333 75899
L86193 76293
L86136 76434
L86108 76462
L86052 76490
" />
<path d="M86980 75759
L87008 75731
L87064 75703
L87205 75703
L87261 75731
L87289 75759
L87318 75815
L87318 75871
L87289 75956
L86952 76293
L87318 76293
" />
<path d="M87683 75703
L87739 75703
L87796 75731
L87824 75759
L87852 75815
L87880 75928
L87880 76068
L87852 76181
L87824 76237
L87796 76265
L87739 76293
L87683 76293
L87627 76265
L87599 76237
L87571 76181
L87543 76068
L87543 75928
L87571 75815
L87599 75759
L87627 75731
L87683 75703
" />
<path d="M88442 76293
L88105 76293
" />
<path d="M88274 76293
L88274 75703
L88217 75787
L88161 75843
L88105 75871
" />
<path d="M88977 75703
L88696 75703
L88667 75984
L88696 75956
L88752 75928
L88892 75928
L88949 75956
L88977 75984
L89005 76040
L89005 76181
L88977 76237
L88949 76265
L88892 76293
L88752 76293
L88696 76265
L88667 76237
" />
</g>
<g style="fill:#000000; fill-opacity:0.0; 
stroke:#000000; stroke-width:19.685; stroke-opacity:1; 
stroke-linecap:round; stroke-linejoin:round;">
</g>
<g style="fill:#000000; fill-opacity:0.0; 
stroke:#000000; stroke-width:59.0551; stroke-opacity:1; 
stroke-linecap:round; stroke-linejoin:round;">
<path d="M69685 76577
L112205 76577
" />
</g>
<g style="fill:#000000; fill-opacity:0.0; 
stroke:#000000; stroke-width:19.685; stroke-opacity:1; 
stroke-linecap:round; stroke-linejoin:round;">
</g>
<g style="fill:#000000; fill-opacity:0.0; 
stroke:#000000; stroke-width:59.0551; stroke-opacity:1; 
stroke-linecap:round; stroke-linejoin:round;">
<path d="M70220 77395
L70220 76805
" />
<path d="M70557 77395
L70304 77058
" />
<path d="M70557 76805
L70220 77142
" />
<path d="M70810 77395
L70810 77002
" />
<path d="M70810 76805
L70782 76833
L70810 76861
L70838 76833
L70810 76805
L70810 76861
" />
<path d="M71429 77339
L71401 77367
L71316 77395
L71260 77395
L71176 77367
L71120 77311
L71091 77255
L71063 77142
L71063 77058
L71091 76946
L71120 76889
L71176 76833
L71260 76805
L71316 76805
L71401 76833
L71429 76861
" />
<path d="M71935 77395
L71935 77086
L71907 77030
L71851 77002
L71738 77002
L71682 77030
" />
<path d="M71935 77367
L71879 77395
L71738 77395
L71682 77367
L71654 77311
L71654 77255
L71682 77199
L71738 77171
L71879 77171
L71935 77142
" />
<path d="M72469 77395
L72469 76805
" />
<path d="M72469 77367
L72413 77395
L72301 77395
L72244 77367
L72216 77339
L72188 77283
L72188 77114
L72216 77058
L72244 77030
L72301 77002
L72413 77002
L72469 77030
" />
<path d="M73201 77086
L73397 77086
" />
<path d="M73482 77395
L73201 77395
L73201 76805
L73482 76805
" />
<path d="M73735 77339
L73763 77367
L73735 77395
L73707 77367
L73735 77339
L73735 77395
" />
<path d="M74016 77395
L74016 76805
L74157 76805
L74241 76833
L74297 76889
L74325 76946
L74354 77058
L74354 77142
L74325 77255
L74297 77311
L74241 77367
L74157 77395
L74016 77395
" />
<path d="M74607 77339
L74635 77367
L74607 77395
L74579 77367
L74607 77339
L74607 77395
" />
<path d="M74860 77227
L75141 77227
" />
<path d="M74804 77395
L75000 76805
L75197 77395
" />
<path d="M75394 77339
L75422 77367
L75394 77395
L75366 77367
L75394 77339
L75394 77395
" />
<path d="M76575 77395
L76575 76805
" />
<path d="M76631 77171
L76800 77395
" />
<path d="M76800 77002
L76575 77227
" />
<path d="M77053 77395
L77053 77002
" />
<path d="M77053 76805
L77025 76833
L77053 76861
L77081 76833
L77053 76805
L77053 76861
" />
<path d="M77588 77367
L77531 77395
L77419 77395
L77363 77367
L77334 77339
L77306 77283
L77306 77114
L77334 77058
L77363 77030
L77419 77002
L77531 77002
L77588 77030
" />
<path d="M78094 77395
L78094 77086
L78066 77030
L78009 77002
L77897 77002
L77841 77030
" />
<path d="M78094 77367
L78037 77395
L77897 77395
L77841 77367
L77813 77311
L77813 77255
L77841 77199
L77897 77171
L78037 77171
L78094 77142
" />
<path d="M78628 77395
L78628 76805
" />
<path d="M78628 77367
L78572 77395
L78459 77395
L78403 77367
L78375 77339
L78347 77283
L78347 77114
L78375 77058
L78403 77030
L78459 77002
L78572 77002
L78628 77030
" />
<path d="M79528 77620
L79500 77592
L79444 77508
L79415 77452
L79387 77367
L79359 77227
L79359 77114
L79387 76974
L79415 76889
L79444 76833
L79500 76749
L79528 76721
" />
<path d="M79725 76861
L79753 76833
L79809 76805
L79950 76805
L80006 76833
L80034 76861
L80062 76917
L80062 76974
L80034 77058
L79697 77395
L80062 77395
" />
<path d="M80428 76805
L80484 76805
L80540 76833
L80568 76861
L80597 76917
L80625 77030
L80625 77171
L80597 77283
L80568 77339
L80540 77367
L80484 77395
L80428 77395
L80372 77367
L80343 77339
L80315 77283
L80287 77171
L80287 77030
L80315 76917
L80343 76861
L80372 76833
L80428 76805
" />
<path d="M81187 77395
L80850 77395
" />
<path d="M81018 77395
L81018 76805
L80962 76889
L80906 76946
L80850 76974
" />
<path d="M81693 77002
L81693 77395
" />
<path d="M81553 76777
L81412 77199
L81778 77199
" />
<path d="M82003 77171
L82453 77171
" />
<path d="M83043 77395
L82706 77395
" />
<path d="M82874 77395
L82874 76805
L82818 76889
L82762 76946
L82706 76974
" />
<path d="M83268 76861
L83296 76833
L83352 76805
L83493 76805
L83549 76833
L83577 76861
L83606 76917
L83606 76974
L83577 77058
L83240 77395
L83606 77395
" />
<path d="M83859 77171
L84309 77171
" />
<path d="M84562 76861
L84590 76833
L84646 76805
L84787 76805
L84843 76833
L84871 76861
L84899 76917
L84899 76974
L84871 77058
L84534 77395
L84899 77395
" />
<path d="M85405 76805
L85293 76805
L85237 76833
L85208 76861
L85152 76946
L85124 77058
L85124 77283
L85152 77339
L85180 77367
L85237 77395
L85349 77395
L85405 77367
L85433 77339
L85462 77283
L85462 77142
L85433 77086
L85405 77058
L85349 77030
L85237 77030
L85180 77058
L85152 77086
L85124 77142
" />
<path d="M86361 77086
L86446 77114
L86474 77142
L86502 77199
L86502 77283
L86474 77339
L86446 77367
L86390 77395
L86165 77395
L86165 76805
L86361 76805
L86418 76833
L86446 76861
L86474 76917
L86474 76974
L86446 77030
L86418 77058
L86361 77086
L86165 77086
" />
<path d="M86699 76805
L87093 76805
L86699 77395
L87093 77395
" />
<path d="M87655 77395
L87458 77114
" />
<path d="M87318 77395
L87318 76805
L87543 76805
L87599 76833
L87627 76861
L87655 76917
L87655 77002
L87627 77058
L87599 77086
L87543 77114
L87318 77114
" />
<path d="M88639 76805
L88358 76805
L88330 77086
L88358 77058
L88414 77030
L88555 77030
L88611 77058
L88639 77086
L88667 77142
L88667 77283
L88639 77339
L88611 77367
L88555 77395
L88414 77395
L88358 77367
L88330 77339
" />
<path d="M88864 76805
L89230 76805
L89033 77030
L89117 77030
L89174 77058
L89202 77086
L89230 77142
L89230 77283
L89202 77339
L89174 77367
L89117 77395
L88949 77395
L88892 77367
L88864 77339
" />
<path d="M89427 76805
L89792 76805
L89595 77030
L89680 77030
L89736 77058
L89764 77086
L89792 77142
L89792 77283
L89764 77339
L89736 77367
L89680 77395
L89511 77395
L89455 77367
L89427 77339
" />
<path d="M90130 77058
L90073 77030
L90045 77002
L90017 76946
L90017 76917
L90045 76861
L90073 76833
L90130 76805
L90242 76805
L90298 76833
L90327 76861
L90355 76917
L90355 76946
L90327 77002
L90298 77030
L90242 77058
L90130 77058
L90073 77086
L90045 77114
L90017 77171
L90017 77283
L90045 77339
L90073 77367
L90130 77395
L90242 77395
L90298 77367
L90327 77339
L90355 77283
L90355 77171
L90327 77114
L90298 77086
L90242 77058
" />
<path d="M90552 77620
L90580 77592
L90636 77508
L90664 77452
L90692 77367
L90720 77227
L90720 77114
L90692 76974
L90664 76889
L90636 76833
L90580 76749
L90552 76721
" />
<path d="M91001 77171
L91451 77171
" />
<path d="M91733 77002
L91733 77592
" />
<path d="M91733 77030
L91789 77002
L91901 77002
L91958 77030
L91986 77058
L92014 77114
L92014 77283
L91986 77339
L91958 77367
L91901 77395
L91789 77395
L91733 77367
" />
<path d="M92267 77395
L92267 77002
" />
<path d="M92267 77114
L92295 77058
L92323 77030
L92379 77002
L92436 77002
" />
<path d="M92717 77395
L92661 77367
L92633 77339
L92604 77283
L92604 77114
L92633 77058
L92661 77030
L92717 77002
L92801 77002
L92858 77030
L92886 77058
L92914 77114
L92914 77283
L92886 77339
L92858 77367
L92801 77395
L92717 77395
" />
<path d="M93420 77395
L93420 76805
" />
<path d="M93420 77367
L93364 77395
L93251 77395
L93195 77367
L93167 77339
L93139 77283
L93139 77114
L93167 77058
L93195 77030
L93251 77002
L93364 77002
L93420 77030
" />
<path d="M93954 77002
L93954 77395
" />
<path d="M93701 77002
L93701 77311
L93729 77367
L93786 77395
L93870 77395
L93926 77367
L93954 77339
" />
<path d="M94489 77367
L94432 77395
L94320 77395
L94264 77367
L94235 77339
L94207 77283
L94207 77114
L94235 77058
L94264 77030
L94320 77002
L94432 77002
L94489 77030
" />
<path d="M94657 77002
L94882 77002
" />
<path d="M94742 76805
L94742 77311
L94770 77367
L94826 77395
L94882 77395
" />
</g>
<g style="fill:#000000; fill-opacity:0.0; 
stroke:#000000; stroke-width:19.685; stroke-opacity:1; 
stroke-linecap:round; stroke-linejoin:round;">
</g>
<g style="fill:#000000; fill-opacity:0.0; 
stroke:#000000; stroke-width:59.0551; stroke-opacity:1; 
stroke-linecap:round; stroke-linejoin:round;">
<path d="M69685 75396
L112205 75396
" />
</g>
<g style="fill:#000000; fill-opacity:0.0; 
stroke:#000000; stroke-width:19.685; stroke-opacity:1; 
stroke-linecap:round; stroke-linejoin:round;">
</g>
<g style="fill:#000000; fill-opacity:0.0; 
stroke:#000000; stroke-width:118.11; stroke-opacity:1; 
stroke-linecap:round; stroke-linejoin:round;">
<path d="M104022 76293
L103825 76012
" />
<path d="M103684 76293
L103684 75703
L103909 75703
L103965 75731
L103994 75759
L104022 75815
L104022 75899
L103994 75956
L103965 75984
L103909 76012
L103684 76012
" />
<path d="M104500 76265
L104444 76293
L104331 76293
L104275 76265
L104247 76209
L104247 75984
L104275 75928
L104331 75899
L104444 75899
L104500 75928
L104528 75984
L104528 76040
L104247 76096
" />
<path d="M104725 75899
L104865 76293
L105006 75899
" />
<path d="M105231 76237
L105259 76265
L105231 76293
L105203 76265
L105231 76237
L105231 76293
" />
<path d="M105231 75928
L105259 75956
L105231 75984
L105203 75956
L105231 75928
L105231 75984
" />
<path d="M106075 75703
L106131 75703
L106187 75731
L106215 75759
L106243 75815
L106271 75928
L106271 76068
L106243 76181
L106215 76237
L106187 76265
L106131 76293
L106075 76293
L106018 76265
L105990 76237
L105962 76181
L105934 76068
L105934 75928
L105962 75815
L105990 75759
L106018 75731
L106075 75703
" />
<path d="M106525 76237
L106553 76265
L106525 76293
L106496 76265
L106525 76237
L106525 76293
" />
<path d="M107115 76293
L106778 76293
" />
<path d="M106946 76293
L106946 75703
L106890 75787
L106834 75843
L106778 75871
" />
</g>
<g style="fill:#000000; fill-opacity:0.0; 
stroke:#000000; stroke-width:19.685; stroke-opacity:1; 
stroke-linecap:round; stroke-linejoin:round;">
</g>
<g style="fill:#000000; fill-opacity:0.0; 
stroke:#000000; stroke-width:59.0551; stroke-opacity:1; 
stroke-linecap:round; stroke-linejoin:round;">
<path d="M70192 76265
L70276 76293
L70417 76293
L70473 76265
L70501 76237
L70529 76181
L70529 76124
L70501 76068
L70473 76040
L70417 76012
L70304 75984
L70248 75956
L70220 75928
L70192 75871
L70192 75815
L70220 75759
L70248 75731
L70304 75703
L70445 75703
L70529 75731
" />
<path d="M70782 76293
L70782 75899
" />
<path d="M70782 75703
L70754 75731
L70782 75759
L70810 75731
L70782 75703
L70782 75759
" />
<path d="M71007 75899
L71316 75899
L71007 76293
L71316 76293
" />
<path d="M71766 76265
L71710 76293
L71598 76293
L71541 76265
L71513 76209
L71513 75984
L71541 75928
L71598 75899
L71710 75899
L71766 75928
L71795 75984
L71795 76040
L71513 76096
" />
<path d="M72048 76237
L72076 76265
L72048 76293
L72019 76265
L72048 76237
L72048 76293
" />
<path d="M72048 75928
L72076 75956
L72048 75984
L72019 75956
L72048 75928
L72048 75984
" />
<path d="M72751 76124
L73032 76124
" />
<path d="M72694 76293
L72891 75703
L73088 76293
" />
<path d="M73538 75899
L73538 76293
" />
<path d="M73397 75674
L73257 76096
L73622 76096
" />
</g>
<g style="fill:#000000; fill-opacity:0.0; 
stroke:#000000; stroke-width:19.685; stroke-opacity:1; 
stroke-linecap:round; stroke-linejoin:round;">
</g>
<g style="fill:#000000; fill-opacity:0.0; 
stroke:#000000; stroke-width:59.0551; stroke-opacity:1; 
stroke-linecap:round; stroke-linejoin:round;">
<path d="M103684 77395
L103684 76805
" />
<path d="M104219 77395
L104219 76805
" />
<path d="M104219 77367
L104162 77395
L104050 77395
L103994 77367
L103965 77339
L103937 77283
L103937 77114
L103965 77058
L103994 77030
L104050 77002
L104162 77002
L104219 77030
" />
<path d="M104500 77339
L104528 77367
L104500 77395
L104472 77367
L104500 77339
L104500 77395
" />
<path d="M104500 77030
L104528 77058
L104500 77086
L104472 77058
L104500 77030
L104500 77086
" />
<path d="M105540 77395
L105203 77395
" />
<path d="M105372 77395
L105372 76805
L105315 76889
L105259 76946
L105203 76974
" />
<path d="M106215 76777
L105709 77536
" />
<path d="M106721 77395
L106384 77395
" />
<path d="M106553 77395
L106553 76805
L106496 76889
L106440 76946
L106384 76974
" />
</g>
<g style="fill:#000000; fill-opacity:0.0; 
stroke:#000000; stroke-width:19.685; stroke-opacity:1; 
stroke-linecap:round; stroke-linejoin:round;">
</g>
<g style="fill:#000000; fill-opacity:0.0; 
stroke:#000000; stroke-width:59.0551; stroke-opacity:1; 
stroke-linecap:round; stroke-linejoin:round;">
<path d="M69685 73821
L112205 73821
" />
</g>
<g style="fill:#000000; fill-opacity:0.0; 
stroke:#000000; stroke-width:19.685; stroke-opacity:1; 
stroke-linecap:round; stroke-linejoin:round;">
</g>
<g style="fill:#000000; fill-opacity:0.0; 
stroke:#000000; stroke-width:157.48; stroke-opacity:1; 
stroke-linecap:round; stroke-linejoin:round;">
<path d="M70257 74099
L70707 74099
" />
<path d="M70384 74886
L70482 74099
" />
<path d="M70871 74886
L70937 74361
" />
<path d="M70970 74099
L70927 74136
L70960 74174
L71002 74136
L70970 74099
L70960 74174
" />
<path d="M71199 74361
L71499 74361
" />
<path d="M71345 74099
L71260 74774
L71288 74849
L71359 74886
L71434 74886
" />
<path d="M71809 74886
L71738 74849
L71710 74774
L71795 74099
" />
<path d="M72413 74849
L72334 74886
L72184 74886
L72113 74849
L72085 74774
L72123 74474
L72169 74399
L72249 74361
L72399 74361
L72469 74399
L72498 74474
L72488 74549
L72104 74624
" />
<path d="M72793 74811
L72826 74849
L72783 74886
L72751 74849
L72793 74811
L72783 74886
" />
<path d="M72844 74399
L72877 74436
L72835 74474
L72802 74436
L72844 74399
L72835 74474
" />
<path d="M73758 74886
L73857 74099
L74049 74661
L74382 74099
L74283 74886
" />
<path d="M74963 74849
L74883 74886
L74733 74886
L74663 74849
L74635 74774
L74672 74474
L74719 74399
L74799 74361
L74949 74361
L75019 74399
L75047 74474
L75038 74549
L74654 74624
" />
<path d="M75736 74361
L75657 74999
L75610 75074
L75567 75111
L75488 75149
L75375 75149
L75305 75111
" />
<path d="M75675 74849
L75596 74886
L75446 74886
L75375 74849
L75343 74811
L75314 74736
L75343 74511
L75389 74436
L75432 74399
L75511 74361
L75661 74361
L75732 74399
" />
<path d="M76383 74886
L76435 74474
L76406 74399
L76336 74361
L76186 74361
L76106 74399
" />
<path d="M76388 74849
L76308 74886
L76121 74886
L76050 74849
L76022 74774
L76031 74699
L76078 74624
L76158 74586
L76346 74586
L76425 74549
" />
<path d="M77170 74886
L76720 74886
" />
<path d="M76945 74886
L77044 74099
L76955 74211
L76870 74286
L76791 74324
" />
<path d="M77559 74174
L77602 74136
L77681 74099
L77869 74099
L77939 74136
L77972 74174
L78000 74249
L77991 74324
L77939 74436
L77433 74886
L77920 74886
" />
<path d="M78427 74436
L78356 74399
L78323 74361
L78295 74286
L78300 74249
L78347 74174
L78389 74136
L78469 74099
L78619 74099
L78689 74136
L78722 74174
L78750 74249
L78745 74286
L78698 74361
L78656 74399
L78576 74436
L78427 74436
L78347 74474
L78305 74511
L78258 74586
L78239 74736
L78267 74811
L78300 74849
L78370 74886
L78520 74886
L78600 74849
L78642 74811
L78689 74736
L78708 74586
L78680 74511
L78647 74474
L78576 74436
" />
<path d="M79411 74361
L79345 74886
" />
<path d="M79261 74061
L79003 74624
L79490 74624
" />
<path d="M80807 74886
L80592 74511
" />
<path d="M80358 74886
L80456 74099
L80756 74099
L80826 74136
L80859 74174
L80887 74249
L80873 74361
L80826 74436
L80784 74474
L80704 74511
L80404 74511
" />
<path d="M81459 74474
L81196 74474
" />
<path d="M81145 74886
L81243 74099
L81618 74099
" />
<path d="M81820 74886
L81918 74099
L82110 74661
L82443 74099
L82345 74886
" />
<path d="M83156 74099
L83006 74099
L82926 74136
L82884 74174
L82795 74286
L82738 74436
L82701 74736
L82729 74811
L82762 74849
L82832 74886
L82982 74886
L83062 74849
L83104 74811
L83151 74736
L83174 74549
L83146 74474
L83113 74436
L83043 74399
L82893 74399
L82813 74436
L82771 74474
L82724 74549
" />
<path d="M83507 74886
L83657 74886
L83737 74849
L83779 74811
L83868 74699
L83924 74549
L83962 74249
L83934 74174
L83901 74136
L83831 74099
L83681 74099
L83601 74136
L83559 74174
L83512 74249
L83488 74436
L83516 74511
L83549 74549
L83620 74586
L83770 74586
L83849 74549
L83891 74511
L83938 74436
" />
<path d="M84819 74886
L84918 74099
L85218 74099
L85288 74136
L85321 74174
L85349 74249
L85335 74361
L85288 74436
L85246 74474
L85166 74511
L84866 74511
" />
<path d="M86066 74811
L86024 74849
L85907 74886
L85832 74886
L85724 74849
L85658 74774
L85630 74699
L85612 74549
L85626 74436
L85682 74286
L85729 74211
L85813 74136
L85930 74099
L86005 74099
L86113 74136
L86146 74174
" />
<path d="M86708 74474
L86816 74511
L86849 74549
L86877 74624
L86863 74736
L86816 74811
L86774 74849
L86694 74886
L86394 74886
L86493 74099
L86755 74099
L86825 74136
L86858 74174
L86886 74249
L86877 74324
L86830 74399
L86788 74436
L86708 74474
L86446 74474
" />
</g>
<g style="fill:#000000; fill-opacity:0.0; 
stroke:#000000; stroke-width:19.685; stroke-opacity:1; 
stroke-linecap:round; stroke-linejoin:round;">
</g>
<g style="fill:#000000; fill-opacity:0.0; 
stroke:#000000; stroke-width:59.0551; stroke-opacity:1; 
stroke-linecap:round; stroke-linejoin:round;">
<path d="M70417 73070
L70220 73070
" />
<path d="M70220 73380
L70220 72789
L70501 72789
" />
<path d="M70726 73380
L70726 72986
" />
<path d="M70726 72789
L70698 72817
L70726 72845
L70754 72817
L70726 72789
L70726 72845
" />
<path d="M71091 73380
L71035 73352
L71007 73295
L71007 72789
" />
<path d="M71541 73352
L71485 73380
L71373 73380
L71316 73352
L71288 73295
L71288 73070
L71316 73014
L71373 72986
L71485 72986
L71541 73014
L71570 73070
L71570 73127
L71288 73183
" />
<path d="M71823 73323
L71851 73352
L71823 73380
L71795 73352
L71823 73323
L71823 73380
" />
<path d="M71823 73014
L71851 73042
L71823 73070
L71795 73042
L71823 73014
L71823 73070
" />
<path d="M72554 73380
L72554 72789
L72751 73211
L72947 72789
L72947 73380
" />
<path d="M73454 73352
L73397 73380
L73285 73380
L73229 73352
L73201 73295
L73201 73070
L73229 73014
L73285 72986
L73397 72986
L73454 73014
L73482 73070
L73482 73127
L73201 73183
" />
<path d="M73988 72986
L73988 73464
L73960 73520
L73932 73548
L73876 73577
L73791 73577
L73735 73548
" />
<path d="M73988 73352
L73932 73380
L73819 73380
L73763 73352
L73735 73323
L73707 73267
L73707 73099
L73735 73042
L73763 73014
L73819 72986
L73932 72986
L73988 73014
" />
<path d="M74522 73380
L74522 73070
L74494 73014
L74438 72986
L74325 72986
L74269 73014
" />
<path d="M74522 73352
L74466 73380
L74325 73380
L74269 73352
L74241 73295
L74241 73239
L74269 73183
L74325 73155
L74466 73155
L74522 73127
" />
<path d="M75113 73380
L74775 73380
" />
<path d="M74944 73380
L74944 72789
L74888 72874
L74832 72930
L74775 72958
" />
<path d="M75338 72845
L75366 72817
L75422 72789
L75563 72789
L75619 72817
L75647 72845
L75675 72902
L75675 72958
L75647 73042
L75310 73380
L75675 73380
" />
<path d="M76013 73042
L75956 73014
L75928 72986
L75900 72930
L75900 72902
L75928 72845
L75956 72817
L76013 72789
L76125 72789
L76181 72817
L76210 72845
L76238 72902
L76238 72930
L76210 72986
L76181 73014
L76125 73042
L76013 73042
L75956 73070
L75928 73099
L75900 73155
L75900 73267
L75928 73323
L75956 73352
L76013 73380
L76125 73380
L76181 73352
L76210 73323
L76238 73267
L76238 73155
L76210 73099
L76181 73070
L76125 73042
" />
<path d="M76744 72986
L76744 73380
" />
<path d="M76603 72761
L76463 73183
L76828 73183
" />
<path d="M77391 73380
L77194 73099
" />
<path d="M77053 73380
L77053 72789
L77278 72789
L77334 72817
L77363 72845
L77391 72902
L77391 72986
L77363 73042
L77334 73070
L77278 73099
L77053 73099
" />
<path d="M77841 73070
L77644 73070
" />
<path d="M77644 73380
L77644 72789
L77925 72789
" />
<path d="M78150 73380
L78150 72789
L78347 73211
L78544 72789
L78544 73380
" />
<path d="M79078 72789
L78965 72789
L78909 72817
L78881 72845
L78825 72930
L78797 73042
L78797 73267
L78825 73323
L78853 73352
L78909 73380
L79022 73380
L79078 73352
L79106 73323
L79134 73267
L79134 73127
L79106 73070
L79078 73042
L79022 73014
L78909 73014
L78853 73042
L78825 73070
L78797 73127
" />
<path d="M79415 73380
L79528 73380
L79584 73352
L79612 73323
L79669 73239
L79697 73127
L79697 72902
L79669 72845
L79640 72817
L79584 72789
L79472 72789
L79415 72817
L79387 72845
L79359 72902
L79359 73042
L79387 73099
L79415 73127
L79472 73155
L79584 73155
L79640 73127
L79669 73099
L79697 73042
" />
<path d="M79809 73436
L80259 73436
" />
<path d="M80400 73380
L80400 72789
L80625 72789
L80681 72817
L80709 72845
L80737 72902
L80737 72986
L80709 73042
L80681 73070
L80625 73099
L80400 73099
" />
<path d="M81328 73323
L81300 73352
L81215 73380
L81159 73380
L81075 73352
L81018 73295
L80990 73239
L80962 73127
L80962 73042
L80990 72930
L81018 72874
L81075 72817
L81159 72789
L81215 72789
L81300 72817
L81328 72845
" />
<path d="M81778 73070
L81862 73099
L81890 73127
L81918 73183
L81918 73267
L81890 73323
L81862 73352
L81806 73380
L81581 73380
L81581 72789
L81778 72789
L81834 72817
L81862 72845
L81890 72902
L81890 72958
L81862 73014
L81834 73042
L81778 73070
L81581 73070
" />
<path d="M82171 73323
L82199 73352
L82171 73380
L82143 73352
L82171 73323
L82171 73380
" />
<path d="M82453 73380
L82453 72789
" />
<path d="M82509 73155
L82678 73380
" />
<path d="M82678 72986
L82453 73211
" />
<path d="M82931 73380
L82931 72986
" />
<path d="M82931 72789
L82903 72817
L82931 72845
L82959 72817
L82931 72789
L82931 72845
" />
<path d="M83465 73352
L83409 73380
L83296 73380
L83240 73352
L83212 73323
L83184 73267
L83184 73099
L83212 73042
L83240 73014
L83296 72986
L83409 72986
L83465 73014
" />
<path d="M83971 73380
L83971 73070
L83943 73014
L83887 72986
L83774 72986
L83718 73014
" />
<path d="M83971 73352
L83915 73380
L83774 73380
L83718 73352
L83690 73295
L83690 73239
L83718 73183
L83774 73155
L83915 73155
L83971 73127
" />
<path d="M84505 73380
L84505 72789
" />
<path d="M84505 73352
L84449 73380
L84337 73380
L84280 73352
L84252 73323
L84224 73267
L84224 73099
L84252 73042
L84280 73014
L84337 72986
L84449 72986
L84505 73014
" />
<path d="M84646 73436
L85096 73436
" />
<path d="M85237 72986
L85237 73577
" />
<path d="M85237 73014
L85293 72986
L85405 72986
L85462 73014
L85490 73042
L85518 73099
L85518 73267
L85490 73323
L85462 73352
L85405 73380
L85293 73380
L85237 73352
" />
<path d="M86024 73352
L85968 73380
L85855 73380
L85799 73352
L85771 73323
L85743 73267
L85743 73099
L85771 73042
L85799 73014
L85855 72986
L85968 72986
L86024 73014
" />
<path d="M86277 73380
L86277 72789
" />
<path d="M86277 73014
L86333 72986
L86446 72986
L86502 73014
L86530 73042
L86558 73099
L86558 73267
L86530 73323
L86502 73352
L86446 73380
L86333 73380
L86277 73352
" />
</g>
<g style="fill:#000000; fill-opacity:0.0; 
stroke:#000000; stroke-width:19.685; stroke-opacity:1; 
stroke-linecap:round; stroke-linejoin:round;">
</g>
<g style="fill:#000000; fill-opacity:0.0; 
stroke:#000000; stroke-width:59.0551; stroke-opacity:1; 
stroke-linecap:round; stroke-linejoin:round;">
<path d="M69685 71459
L112205 71459
" />
</g>
<g style="fill:#000000; fill-opacity:0.0; 
stroke:#000000; stroke-width:19.685; stroke-opacity:1; 
stroke-linecap:round; stroke-linejoin:round;">
</g>
<g style="fill:#000000; fill-opacity:0.0; 
stroke:#000000; stroke-width:59.0551; stroke-opacity:1; 
stroke-linecap:round; stroke-linejoin:round;">
<path d="M70192 72289
L70276 72317
L70417 72317
L70473 72289
L70501 72260
L70529 72204
L70529 72148
L70501 72092
L70473 72064
L70417 72036
L70304 72007
L70248 71979
L70220 71951
L70192 71895
L70192 71839
L70220 71782
L70248 71754
L70304 71726
L70445 71726
L70529 71754
" />
<path d="M70782 72317
L70782 71726
" />
<path d="M71035 72317
L71035 72007
L71007 71951
L70951 71923
L70867 71923
L70810 71951
L70782 71979
" />
<path d="M71541 72289
L71485 72317
L71373 72317
L71316 72289
L71288 72232
L71288 72007
L71316 71951
L71373 71923
L71485 71923
L71541 71951
L71570 72007
L71570 72064
L71288 72120
" />
<path d="M72048 72289
L71991 72317
L71879 72317
L71823 72289
L71795 72232
L71795 72007
L71823 71951
L71879 71923
L71991 71923
L72048 71951
L72076 72007
L72076 72064
L71795 72120
" />
<path d="M72244 71923
L72469 71923
" />
<path d="M72329 71726
L72329 72232
L72357 72289
L72413 72317
L72469 72317
" />
<path d="M72666 72260
L72694 72289
L72666 72317
L72638 72289
L72666 72260
L72666 72317
" />
<path d="M72666 71951
L72694 71979
L72666 72007
L72638 71979
L72666 71951
L72666 72007
" />
</g>
<g style="fill:#000000; fill-opacity:0.0; 
stroke:#000000; stroke-width:19.685; stroke-opacity:1; 
stroke-linecap:round; stroke-linejoin:round;">
</g>
<g style="fill:#000000; fill-opacity:0.0; 
stroke:#000000; stroke-width:118.11; stroke-opacity:1; 
stroke-linecap:round; stroke-linejoin:round;">
<path d="M70192 71108
L70248 71136
L70360 71136
L70417 71108
L70445 71051
L70445 71023
L70417 70967
L70360 70939
L70276 70939
L70220 70911
L70192 70854
L70192 70826
L70220 70770
L70276 70742
L70360 70742
L70417 70770
" />
<path d="M70698 70911
L71148 70911
" />
<path d="M71513 71136
L71457 71108
L71429 71051
L71429 70545
" />
<path d="M71738 71136
L71738 70742
" />
<path d="M71738 70545
L71710 70573
L71738 70601
L71766 70573
L71738 70545
L71738 70601
" />
<path d="M72273 70742
L72273 71220
L72244 71276
L72216 71304
L72160 71332
L72076 71332
L72019 71304
" />
<path d="M72273 71108
L72216 71136
L72104 71136
L72048 71108
L72019 71079
L71991 71023
L71991 70854
L72019 70798
L72048 70770
L72104 70742
L72216 70742
L72273 70770
" />
<path d="M72554 71136
L72554 70545
" />
<path d="M72807 71136
L72807 70826
L72779 70770
L72723 70742
L72638 70742
L72582 70770
L72554 70798
" />
<path d="M73004 70742
L73229 70742
" />
<path d="M73088 70545
L73088 71051
L73116 71108
L73172 71136
L73229 71136
" />
<path d="M73426 71079
L73454 71108
L73426 71136
L73397 71108
L73426 71079
L73426 71136
" />
<path d="M73932 71108
L73876 71136
L73763 71136
L73707 71108
L73679 71051
L73679 70826
L73707 70770
L73763 70742
L73876 70742
L73932 70770
L73960 70826
L73960 70883
L73679 70939
" />
<path d="M74466 70742
L74466 71136
" />
<path d="M74213 70742
L74213 71051
L74241 71108
L74297 71136
L74382 71136
L74438 71108
L74466 71079
" />
</g>
<g style="fill:#000000; fill-opacity:0.0; 
stroke:#000000; stroke-width:19.685; stroke-opacity:1; 
stroke-linecap:round; stroke-linejoin:round;">
</g>
<g style="fill:#000000; fill-opacity:0.0; 
stroke:#000000; stroke-width:59.0551; stroke-opacity:1; 
stroke-linecap:round; stroke-linejoin:round;">
<path d="M77559 75396
L77559 76577
" />
</g>
<g style="fill:#000000; fill-opacity:0.0; 
stroke:#000000; stroke-width:19.685; stroke-opacity:1; 
stroke-linecap:round; stroke-linejoin:round;">
</g>
<g style="fill:#000000; fill-opacity:0.0; 
stroke:#000000; stroke-width:59.0551; stroke-opacity:1; 
stroke-linecap:round; stroke-linejoin:round;">
<path d="M102756 75396
L102756 77955
" />
</g>
<g style="fill:#C1C100; fill-opacity:0.0; 
stroke:#C1C100; stroke-width:39.3701; stroke-opacity:1; 
stroke-linecap:round; stroke-linejoin:round;">
<path d="M19685 51181
L19685 19685
" />
<path d="M30314 51181
L19685 51181
" />
<path d="M30314 19685
L30314 51181
" />
<path d="M19685 19685
L30314 19685
" />
</g>
<g style="fill:#008484; fill-opacity:0.0; 
stroke:#008484; stroke-width:19.685; stroke-opacity:1; 
stroke-linecap:round; stroke-linejoin:round;">
<path d="M24993 46989
L25021 46998
L25068 46998
L25087 46989
L25096 46979
L25105 46961
L25105 46942
L25096 46923
L25087 46914
L25068 46904
L25030 46895
L25012 46886
L25002 46876
L24993 46857
L24993 46839
L25002 46820
L25012 46811
L25030 46801
L25077 46801
L25105 46811
" />
<path d="M25171 46801
L25218 46998
L25255 46857
L25293 46998
L25340 46801
" />
<path d="M25518 46998
L25405 46998
" />
<path d="M25462 46998
L25462 46801
L25443 46829
L25424 46848
L25405 46857
" />
<path d="M24976 49439
L24976 49308
" />
<path d="M24976 49345
L24985 49326
L24995 49317
L25014 49308
L25032 49308
" />
<path d="M25173 49430
L25154 49439
L25117 49439
L25098 49430
L25089 49411
L25089 49336
L25098 49317
L25117 49308
L25154 49308
L25173 49317
L25182 49336
L25182 49355
L25089 49373
" />
<path d="M25257 49430
L25276 49439
L25314 49439
L25332 49430
L25342 49411
L25342 49401
L25332 49383
L25314 49373
L25285 49373
L25267 49364
L25257 49345
L25257 49336
L25267 49317
L25285 49308
L25314 49308
L25332 49317
" />
<path d="M25501 49430
L25482 49439
L25445 49439
L25426 49430
L25417 49411
L25417 49336
L25426 49317
L25445 49308
L25482 49308
L25501 49317
L25510 49336
L25510 49355
L25417 49373
" />
<path d="M25567 49308
L25642 49308
" />
<path d="M25595 49242
L25595 49411
L25604 49430
L25623 49439
L25642 49439
" />
<path d="M26626 31880
L26626 31683
L26673 31683
L26701 31692
L26720 31711
L26729 31730
L26738 31767
L26738 31796
L26729 31833
L26720 31852
L26701 31871
L26673 31880
L26626 31880
" />
<path d="M26813 31702
L26823 31692
L26841 31683
L26888 31683
L26907 31692
L26916 31702
L26926 31721
L26926 31739
L26916 31767
L26804 31880
L26926 31880
" />
<path d="M26659 31880
L26565 31880
L26565 31683
" />
<path d="M26724 31777
L26790 31777
" />
<path d="M26818 31880
L26724 31880
L26724 31683
L26818 31683
" />
<path d="M26902 31880
L26902 31683
L26949 31683
L26977 31692
L26996 31711
L27005 31730
L27015 31767
L27015 31796
L27005 31833
L26996 31852
L26977 31871
L26949 31880
L26902 31880
" />
<path d="M27052 31899
L27202 31899
" />
<path d="M27315 31777
L27343 31786
L27352 31796
L27362 31814
L27362 31842
L27352 31861
L27343 31871
L27324 31880
L27249 31880
L27249 31683
L27315 31683
L27334 31692
L27343 31702
L27352 31721
L27352 31739
L27343 31758
L27334 31767
L27315 31777
L27249 31777
" />
<path d="M27474 31880
L27455 31871
L27446 31861
L27437 31842
L27437 31786
L27446 31767
L27455 31758
L27474 31749
L27502 31749
L27521 31758
L27530 31767
L27540 31786
L27540 31842
L27530 31861
L27521 31871
L27502 31880
L27474 31880
" />
<path d="M27652 31880
L27634 31871
L27624 31861
L27615 31842
L27615 31786
L27624 31767
L27634 31758
L27652 31749
L27680 31749
L27699 31758
L27709 31767
L27718 31786
L27718 31842
L27709 31861
L27699 31871
L27680 31880
L27652 31880
" />
<path d="M27774 31749
L27849 31749
" />
<path d="M27802 31683
L27802 31852
L27812 31871
L27830 31880
L27849 31880
" />
<path d="M27943 31880
L27924 31871
L27915 31852
L27915 31683
" />
<path d="M28046 31880
L28027 31871
L28018 31861
L28008 31842
L28008 31786
L28018 31767
L28027 31758
L28046 31749
L28074 31749
L28093 31758
L28102 31767
L28112 31786
L28112 31842
L28102 31861
L28093 31871
L28074 31880
L28046 31880
" />
<path d="M28280 31880
L28280 31777
L28271 31758
L28252 31749
L28215 31749
L28196 31758
" />
<path d="M28280 31871
L28262 31880
L28215 31880
L28196 31871
L28187 31852
L28187 31833
L28196 31814
L28215 31805
L28262 31805
L28280 31796
" />
<path d="M28458 31880
L28458 31683
" />
<path d="M28458 31871
L28440 31880
L28402 31880
L28383 31871
L28374 31861
L28365 31842
L28365 31786
L28374 31767
L28383 31758
L28402 31749
L28440 31749
L28458 31758
" />
<path d="M28627 31871
L28608 31880
L28571 31880
L28552 31871
L28543 31852
L28543 31777
L28552 31758
L28571 31749
L28608 31749
L28627 31758
L28637 31777
L28637 31796
L28543 31814
" />
<path d="M28721 31880
L28721 31749
" />
<path d="M28721 31786
L28730 31767
L28740 31758
L28758 31749
L28777 31749
" />
<path d="M26626 32766
L26626 32569
L26673 32569
L26701 32578
L26720 32597
L26729 32616
L26738 32653
L26738 32681
L26729 32719
L26720 32738
L26701 32756
L26673 32766
L26626 32766
" />
<path d="M26804 32569
L26926 32569
L26860 32644
L26888 32644
L26907 32653
L26916 32663
L26926 32681
L26926 32728
L26916 32747
L26907 32756
L26888 32766
L26832 32766
L26813 32756
L26804 32747
" />
<path d="M27174 32766
L27080 32766
L27080 32569
" />
<path d="M27240 32663
L27305 32663
" />
<path d="M27334 32766
L27240 32766
L27240 32569
L27334 32569
" />
<path d="M27418 32766
L27418 32569
L27465 32569
L27493 32578
L27512 32597
L27521 32616
L27530 32653
L27530 32681
L27521 32719
L27512 32738
L27493 32756
L27465 32766
L27418 32766
" />
<path d="M27568 32784
L27718 32784
" />
<path d="M27765 32766
L27765 32569
" />
<path d="M27859 32634
L27859 32766
" />
<path d="M27859 32653
L27868 32644
L27887 32634
L27915 32634
L27934 32644
L27943 32663
L27943 32766
" />
<path d="M28008 32634
L28083 32634
" />
<path d="M28037 32766
L28037 32597
L28046 32578
L28065 32569
L28083 32569
" />
<path d="M28177 32766
L28158 32756
L28149 32747
L28140 32728
L28140 32672
L28149 32653
L28158 32644
L28177 32634
L28205 32634
L28224 32644
L28233 32653
L28243 32672
L28243 32728
L28233 32747
L28224 32756
L28205 32766
L28177 32766
" />
<path d="M22029 31766
L22029 31569
L22104 31569
L22123 31578
L22133 31588
L22142 31606
L22142 31634
L22133 31653
L22123 31663
L22104 31672
L22029 31672
" />
<path d="M22208 31569
L22329 31569
L22264 31644
L22292 31644
L22311 31653
L22320 31663
L22329 31681
L22329 31728
L22320 31747
L22311 31756
L22292 31766
L22236 31766
L22217 31756
L22208 31747
" />
<path d="M21409 50482
L21409 50285
L21484 50285
L21503 50295
L21512 50304
L21522 50323
L21522 50351
L21512 50370
L21503 50379
L21484 50389
L21409 50389
" />
<path d="M21691 50351
L21691 50482
" />
<path d="M21644 50276
L21597 50417
L21719 50417
" />
<path d="M23809 35789
L24006 35658
" />
<path d="M23809 35658
L24006 35789
" />
<path d="M24006 35479
L24006 35592
" />
<path d="M24006 35536
L23809 35536
L23837 35554
L23856 35573
L23865 35592
" />
<path d="M24221 35189
L24212 35179
L24203 35161
L24203 35114
L24212 35095
L24221 35086
L24240 35076
L24259 35076
L24287 35086
L24400 35198
L24400 35076
" />
<path d="M24203 34955
L24203 34936
L24212 34917
L24221 34908
L24240 34898
L24278 34889
L24325 34889
L24362 34898
L24381 34908
L24390 34917
L24400 34936
L24400 34955
L24390 34973
L24381 34983
L24362 34992
L24325 35001
L24278 35001
L24240 34992
L24221 34983
L24212 34973
L24203 34955
" />
<path d="M24400 34805
L24203 34805
L24343 34739
L24203 34673
L24400 34673
" />
<path d="M24400 34580
L24203 34580
" />
<path d="M24296 34580
L24296 34467
" />
<path d="M24400 34467
L24203 34467
" />
<path d="M24268 34392
L24268 34289
L24400 34392
L24400 34289
" />
<path d="M22923 27512
L23083 27512
L23101 27502
L23111 27493
L23120 27474
L23120 27437
L23111 27418
L23101 27409
L23083 27399
L22923 27399
" />
<path d="M22923 27324
L22923 27202
L22998 27268
L22998 27240
L23008 27221
L23017 27212
L23036 27202
L23083 27202
L23101 27212
L23111 27221
L23120 27240
L23120 27296
L23111 27315
L23101 27324
" />
<path d="M23120 25342
L23026 25407
" />
<path d="M23120 25454
L22923 25454
L22923 25379
L22933 25360
L22942 25351
L22961 25342
L22989 25342
L23008 25351
L23017 25360
L23026 25379
L23026 25454
" />
<path d="M23017 25192
L23017 25257
" />
<path d="M23120 25257
L22923 25257
L22923 25164
" />
<path d="M23120 25089
L22923 25089
L23064 25023
L22923 24957
L23120 24957
" />
<path d="M22923 24779
L22923 24817
L22933 24835
L22942 24845
L22970 24864
L23008 24873
L23083 24873
L23101 24864
L23111 24854
L23120 24835
L23120 24798
L23111 24779
L23101 24770
L23083 24760
L23036 24760
L23017 24770
L23008 24779
L22998 24798
L22998 24835
L23008 24854
L23017 24864
L23036 24873
" />
<path d="M23120 24667
L23120 24629
L23111 24610
L23101 24601
L23073 24582
L23036 24573
L22961 24573
L22942 24582
L22933 24592
L22923 24610
L22923 24648
L22933 24667
L22942 24676
L22961 24685
L23008 24685
L23026 24676
L23036 24667
L23045 24648
L23045 24610
L23036 24592
L23026 24582
L23008 24573
" />
<path d="M23120 24489
L22923 24489
" />
<path d="M23017 24489
L23017 24376
" />
<path d="M23120 24376
L22923 24376
" />
<path d="M22923 24301
L23120 24254
L22979 24217
L23120 24179
L22923 24132
" />
<path d="M22314 47806
L22305 47815
L22276 47825
L22258 47825
L22230 47815
L22211 47797
L22201 47778
L22192 47740
L22192 47712
L22201 47675
L22211 47656
L22230 47637
L22258 47628
L22276 47628
L22305 47637
L22314 47647
" />
<path d="M22501 47825
L22389 47825
" />
<path d="M22445 47825
L22445 47628
L22426 47656
L22408 47675
L22389 47684
" />
<path d="M22614 47712
L22595 47703
L22586 47694
L22576 47675
L22576 47665
L22586 47647
L22595 47637
L22614 47628
L22651 47628
L22670 47637
L22679 47647
L22689 47665
L22689 47675
L22679 47694
L22670 47703
L22651 47712
L22614 47712
L22595 47722
L22586 47731
L22576 47750
L22576 47787
L22586 47806
L22595 47815
L22614 47825
L22651 47825
L22670 47815
L22679 47806
L22689 47787
L22689 47750
L22679 47731
L22670 47722
L22651 47712
" />
<path d="M22136 48907
L22023 48907
" />
<path d="M22080 48907
L22080 48711
L22061 48739
L22042 48757
L22023 48767
" />
<path d="M22258 48711
L22276 48711
L22295 48720
L22305 48729
L22314 48748
L22323 48786
L22323 48832
L22314 48870
L22305 48889
L22295 48898
L22276 48907
L22258 48907
L22239 48898
L22230 48889
L22220 48870
L22211 48832
L22211 48786
L22220 48748
L22230 48729
L22239 48720
L22258 48711
" />
<path d="M22445 48711
L22464 48711
L22483 48720
L22492 48729
L22501 48748
L22511 48786
L22511 48832
L22501 48870
L22492 48889
L22483 48898
L22464 48907
L22445 48907
L22426 48898
L22417 48889
L22408 48870
L22398 48832
L22398 48786
L22408 48748
L22417 48729
L22426 48720
L22445 48711
" />
<path d="M22595 48776
L22595 48907
" />
<path d="M22595 48795
L22604 48786
L22623 48776
L22651 48776
L22670 48786
L22679 48804
L22679 48907
" />
<path d="M22839 48804
L22773 48804
" />
<path d="M22773 48907
L22773 48711
L22867 48711
" />
<path d="M23200 34383
L23209 34392
L23218 34420
L23218 34439
L23209 34467
L23190 34486
L23172 34495
L23134 34505
L23106 34505
L23068 34495
L23050 34486
L23031 34467
L23022 34439
L23022 34420
L23031 34392
L23040 34383
" />
<path d="M23040 34308
L23031 34298
L23022 34280
L23022 34233
L23031 34214
L23040 34205
L23059 34195
L23078 34195
L23106 34205
L23218 34317
L23218 34195
" />
<path d="M22806 35540
L22815 35531
L22834 35522
L22881 35522
L22900 35531
L22909 35540
L22919 35559
L22919 35578
L22909 35606
L22797 35718
L22919 35718
" />
<path d="M22994 35540
L23003 35531
L23022 35522
L23068 35522
L23087 35531
L23097 35540
L23106 35559
L23106 35578
L23097 35606
L22984 35718
L23106 35718
" />
<path d="M23190 35587
L23190 35784
" />
<path d="M23190 35597
L23209 35587
L23247 35587
L23265 35597
L23275 35606
L23284 35625
L23284 35681
L23275 35700
L23265 35709
L23247 35718
L23209 35718
L23190 35709
" />
<path d="M23434 35615
L23368 35615
" />
<path d="M23368 35718
L23368 35522
L23462 35522
" />
<path d="M25562 34383
L25571 34392
L25581 34420
L25581 34439
L25571 34467
L25553 34486
L25534 34495
L25496 34505
L25468 34505
L25431 34495
L25412 34486
L25393 34467
L25384 34439
L25384 34420
L25393 34392
L25403 34383
" />
<path d="M25581 34195
L25581 34308
" />
<path d="M25581 34251
L25384 34251
L25412 34270
L25431 34289
L25440 34308
" />
<path d="M25168 35540
L25178 35531
L25196 35522
L25243 35522
L25262 35531
L25271 35540
L25281 35559
L25281 35578
L25271 35606
L25159 35718
L25281 35718
" />
<path d="M25356 35540
L25365 35531
L25384 35522
L25431 35522
L25449 35531
L25459 35540
L25468 35559
L25468 35578
L25459 35606
L25346 35718
L25468 35718
" />
<path d="M25553 35587
L25553 35784
" />
<path d="M25553 35597
L25571 35587
L25609 35587
L25628 35597
L25637 35606
L25646 35625
L25646 35681
L25637 35700
L25628 35709
L25609 35718
L25571 35718
L25553 35709
" />
<path d="M25796 35615
L25731 35615
" />
<path d="M25731 35718
L25731 35522
L25824 35522
" />
<path d="M29171 20542
L28974 20542
L28974 20467
L28984 20449
L28993 20439
L29012 20430
L29040 20430
L29059 20439
L29068 20449
L29077 20467
L29077 20542
" />
<path d="M28974 20252
L28974 20346
L29068 20355
L29059 20346
L29049 20327
L29049 20280
L29059 20261
L29068 20252
L29087 20242
L29134 20242
L29152 20252
L29162 20261
L29171 20280
L29171 20327
L29162 20346
L29152 20355
" />
<path d="M26185 42215
L26185 42018
" />
<path d="M26392 42196
L26382 42205
L26354 42215
L26335 42215
L26307 42205
L26288 42186
L26279 42168
L26270 42130
L26270 42102
L26279 42065
L26288 42046
L26307 42027
L26335 42018
L26354 42018
L26382 42027
L26392 42036
" />
<path d="M26579 42215
L26467 42215
" />
<path d="M26523 42215
L26523 42018
L26504 42046
L26485 42065
L26467 42074
" />
<path d="M22099 41736
L22099 41643
" />
<path d="M22155 41755
L21959 41690
L22155 41624
" />
<path d="M21959 41586
L21959 41474
" />
<path d="M22155 41530
L21959 41530
" />
<path d="M22155 41408
L21959 41408
L22099 41343
L21959 41277
L22155 41277
" />
<path d="M22052 41183
L22052 41118
" />
<path d="M22155 41090
L22155 41183
L21959 41183
L21959 41090
" />
<path d="M21968 40902
L21959 40921
L21959 40949
L21968 40977
L21987 40996
L22005 41005
L22043 41015
L22071 41015
L22109 41005
L22127 40996
L22146 40977
L22155 40949
L22155 40930
L22146 40902
L22137 40893
L22071 40893
L22071 40930
" />
<path d="M22099 40818
L22099 40724
" />
<path d="M22155 40837
L21959 40771
L22155 40705
" />
<path d="M22155 40537
L22155 40649
" />
<path d="M22155 40593
L21959 40593
L21987 40612
L22005 40630
L22015 40649
" />
<path d="M21977 40462
L21968 40452
L21959 40434
L21959 40387
L21968 40368
L21977 40359
L21996 40349
L22015 40349
L22043 40359
L22155 40471
L22155 40349
" />
<path d="M22043 40237
L22034 40255
L22024 40265
L22005 40274
L21996 40274
L21977 40265
L21968 40255
L21959 40237
L21959 40199
L21968 40180
L21977 40171
L21996 40162
L22005 40162
L22024 40171
L22034 40180
L22043 40199
L22043 40237
L22052 40255
L22062 40265
L22080 40274
L22118 40274
L22137 40265
L22146 40255
L22155 40237
L22155 40199
L22146 40180
L22137 40171
L22118 40162
L22080 40162
L22062 40171
L22052 40180
L22043 40199
" />
<path d="M22024 39993
L22155 39993
" />
<path d="M21949 40040
L22090 40087
L22090 39965
" />
<path d="M22155 39890
L21959 39890
L21959 39815
L21968 39796
L21977 39787
L21996 39777
L22024 39777
L22043 39787
L22052 39796
L22062 39815
L22062 39890
" />
<path d="M22080 39693
L22080 39543
" />
<path d="M22099 39459
L22099 39365
" />
<path d="M22155 39477
L21959 39412
L22155 39346
" />
</g>
<g style="fill:#008484; fill-opacity:0.0; 
stroke:#008484; stroke-width:39.3701; stroke-opacity:1; 
stroke-linecap:round; stroke-linejoin:round;">
<circle cx="25295.3" cy="48326.8" r="590.551" /> 
<path d="M24074 49625
L26515 49625
" />
<path d="M24074 48326
L24074 49625
" />
<path d="M24074 48326
L24074 47027
" />
<path d="M24074 47027
L26515 47027
" />
<path d="M26515 47027
L26515 48326
" />
<path d="M26515 48326
L26515 49625
" />
</g>
<g style="fill:#008484; fill-opacity:0.0; 
stroke:#008484; stroke-width:59.0551; stroke-opacity:1; 
stroke-linecap:round; stroke-linejoin:round;">
<path d="M27461 32067
L27461 31939
" />
<path d="M27461 31939
L27264 31939
" />
<path d="M27264 32067
L27264 31939
" />
<path d="M27461 32067
L27264 32067
" />
<path d="M27461 32312
L27461 32253
" />
<path d="M27461 32253
L27362 32253
" />
<path d="M27362 32312
L27362 32253
" />
<path d="M27461 32312
L27362 32312
" />
<path d="M27461 32117
L27461 32058
" />
<path d="M27461 32058
L27362 32058
" />
<path d="M27362 32117
L27362 32058
" />
<path d="M27461 32117
L27362 32117
" />
<path d="M27461 32263
L27461 32107
" />
<path d="M27461 32107
L27392 32107
" />
<path d="M27392 32263
L27392 32107
" />
<path d="M27461 32263
L27392 32263
" />
<path d="M28050 32067
L28050 31939
" />
<path d="M28050 31939
L27853 31939
" />
<path d="M27853 32067
L27853 31939
" />
<path d="M28050 32067
L27853 32067
" />
<path d="M28050 32431
L28050 32303
" />
<path d="M28050 32303
L27853 32303
" />
<path d="M27853 32431
L27853 32303
" />
<path d="M28050 32431
L27853 32431
" />
<path d="M27952 32117
L27952 32058
" />
<path d="M27952 32058
L27853 32058
" />
<path d="M27853 32117
L27853 32058
" />
<path d="M27952 32117
L27853 32117
" />
<path d="M27952 32312
L27952 32253
" />
<path d="M27952 32253
L27853 32253
" />
<path d="M27853 32312
L27853 32253
" />
<path d="M27952 32312
L27853 32312
" />
<path d="M27922 32263
L27922 32107
" />
<path d="M27922 32107
L27853 32107
" />
<path d="M27853 32263
L27853 32107
" />
<path d="M27922 32263
L27853 32263
" />
<path d="M27657 32224
L27657 32146
" />
<path d="M27657 32146
L27579 32146
" />
<path d="M27579 32224
L27579 32146
" />
<path d="M27657 32224
L27579 32224
" />
<path d="M27461 32421
L27461 32303
" />
<path d="M27461 32303
L27343 32303
" />
<path d="M27343 32421
L27343 32303
" />
<path d="M27461 32421
L27343 32421
" />
<path d="M27293 32431
L27293 32342
" />
<path d="M27293 32342
L27264 32342
" />
<path d="M27264 32431
L27264 32342
" />
<path d="M27293 32431
L27264 32431
" />
<path d="M27451 31959
L27863 31959
" />
<path d="M27853 32411
L27293 32411
" />
<circle cx="27323.5" cy="32362" r="28.2843" /> 
<path d="M27264.5 32322 A137 137 0.0 0 0 27264.5 32048 " />
<path d="M28050.5 32048 A137 137 0.0 0 0 28050.5 32322 " />
<path d="M27461 32952
L27461 32824
" />
<path d="M27461 32824
L27264 32824
" />
<path d="M27264 32952
L27264 32824
" />
<path d="M27461 32952
L27264 32952
" />
<path d="M27461 33197
L27461 33138
" />
<path d="M27461 33138
L27362 33138
" />
<path d="M27362 33197
L27362 33138
" />
<path d="M27461 33197
L27362 33197
" />
<path d="M27461 33002
L27461 32943
" />
<path d="M27461 32943
L27362 32943
" />
<path d="M27362 33002
L27362 32943
" />
<path d="M27461 33002
L27362 33002
" />
<path d="M27461 33148
L27461 32992
" />
<path d="M27461 32992
L27392 32992
" />
<path d="M27392 33148
L27392 32992
" />
<path d="M27461 33148
L27392 33148
" />
<path d="M28050 32952
L28050 32824
" />
<path d="M28050 32824
L27853 32824
" />
<path d="M27853 32952
L27853 32824
" />
<path d="M28050 32952
L27853 32952
" />
<path d="M28050 33316
L28050 33188
" />
<path d="M28050 33188
L27853 33188
" />
<path d="M27853 33316
L27853 33188
" />
<path d="M28050 33316
L27853 33316
" />
<path d="M27952 33002
L27952 32943
" />
<path d="M27952 32943
L27853 32943
" />
<path d="M27853 33002
L27853 32943
" />
<path d="M27952 33002
L27853 33002
" />
<path d="M27952 33197
L27952 33138
" />
<path d="M27952 33138
L27853 33138
" />
<path d="M27853 33197
L27853 33138
" />
<path d="M27952 33197
L27853 33197
" />
<path d="M27922 33148
L27922 32992
" />
<path d="M27922 32992
L27853 32992
" />
<path d="M27853 33148
L27853 32992
" />
<path d="M27922 33148
L27853 33148
" />
<path d="M27657 33109
L27657 33031
" />
<path d="M27657 33031
L27579 33031
" />
<path d="M27579 33109
L27579 33031
" />
<path d="M27657 33109
L27579 33109
" />
<path d="M27461 33306
L27461 33188
" />
<path d="M27461 33188
L27343 33188
" />
<path d="M27343 33306
L27343 33188
" />
<path d="M27461 33306
L27343 33306
" />
<path d="M27293 33316
L27293 33227
" />
<path d="M27293 33227
L27264 33227
" />
<path d="M27264 33316
L27264 33227
" />
<path d="M27293 33316
L27264 33316
" />
<path d="M27451 32844
L27863 32844
" />
<path d="M27853 33296
L27293 33296
" />
<circle cx="27323.5" cy="33247.9" r="28.2843" /> 
<path d="M27264.5 33207.9 A137 137 0.0 0 0 27264.5 32933.9 " />
<path d="M28050.5 32933.9 A137 137 0.0 0 0 28050.5 33207.9 " />
<path d="M21925 32677
L22925 32677
" />
<path d="M22925 32677
L22925 33677
" />
<path d="M21925 33677
L24925 33677
" />
<path d="M24925 33677
L24925 31677
" />
<path d="M24925 31677
L22925 31677
" />
<path d="M21925 33677
L21925 32677
" />
<path d="M21925 31677
L21925 32677
" />
<path d="M22925 31677
L21925 31677
" />
<path d="M26935 52035
L27935 51035
" />
<path d="M27935 52035
L26935 51035
" />
<path d="M27485 52085
L27485 54385
" />
<path d="M27485 54385
L27385 54385
" />
<path d="M27385 54385
L27385 52085
" />
<path d="M27385 52085
L27435 52085
" />
<path d="M27435 52085
L27435 54385
" />
<path d="M27535 51035
L27535 50885
" />
<path d="M27335 51035
L27335 50885
" />
<path d="M26535 51035
L26535 50885
" />
<path d="M26335 51035
L26335 50885
" />
<path d="M25535 51035
L25535 50885
" />
<path d="M25335 51035
L25335 50885
" />
<path d="M22335 51035
L22335 50885
" />
<path d="M22535 51035
L22535 50885
" />
<path d="M23335 51035
L23335 50885
" />
<path d="M23535 51035
L23535 50885
" />
<path d="M24335 51035
L24335 50885
" />
<path d="M24535 51035
L24535 50885
" />
<path d="M27935 51035
L27935 52035
" />
<path d="M26935 51035
L26935 52035
" />
<path d="M26935 51035
L25935 51035
" />
<path d="M25935 51035
L25935 52035
" />
<path d="M26535 52035
L26535 54435
" />
<path d="M26535 54435
L26335 54435
" />
<path d="M26335 54435
L26335 52035
" />
<path d="M25935 52035
L26935 52035
" />
<path d="M26935 52035
L27935 52035
" />
<path d="M27335 54435
L27335 52035
" />
<path d="M27535 54435
L27335 54435
" />
<path d="M27535 52035
L27535 54435
" />
<path d="M26935 51035
L26935 52035
" />
<path d="M27935 51035
L26935 51035
" />
<path d="M23935 51035
L23935 52035
" />
<path d="M23935 51035
L22935 51035
" />
<path d="M22935 51035
L22935 52035
" />
<path d="M23535 52035
L23535 54435
" />
<path d="M23535 54435
L23335 54435
" />
<path d="M23335 54435
L23335 52035
" />
<path d="M22935 52035
L23935 52035
" />
<path d="M21935 52035
L22935 52035
" />
<path d="M22335 54435
L22335 52035
" />
<path d="M22535 54435
L22335 54435
" />
<path d="M22535 52035
L22535 54435
" />
<path d="M21935 51035
L21935 52035
" />
<path d="M22935 51035
L21935 51035
" />
<path d="M22935 51035
L22935 52035
" />
<path d="M24935 51035
L24935 52035
" />
<path d="M24935 51035
L23935 51035
" />
<path d="M23935 51035
L23935 52035
" />
<path d="M24535 52035
L24535 54435
" />
<path d="M24535 54435
L24335 54435
" />
<path d="M24335 54435
L24335 52035
" />
<path d="M23935 52035
L24935 52035
" />
<path d="M24935 52035
L25935 52035
" />
<path d="M25335 54435
L25335 52035
" />
<path d="M25535 54435
L25335 54435
" />
<path d="M25535 52035
L25535 54435
" />
<path d="M24935 51035
L24935 52035
" />
<path d="M25935 51035
L24935 51035
" />
<path d="M25935 51035
L25935 52035
" />
</g>
<g style="fill:#008484; fill-opacity:0.0; 
stroke:#008484; stroke-width:19.685; stroke-opacity:1; 
stroke-linecap:round; stroke-linejoin:round;">
<path d="M24311 35748
L24311 35826
" />
<path d="M24311 35826
L24783 35826
" />
<path d="M24783 35826
L24783 35944
" />
<path d="M24311 35511
L24311 35433
" />
<path d="M24311 35433
L23877 35433
" />
<path d="M23877 35433
L23877 35314
" />
<path d="M24114 35748
L24507 35748
" />
<path d="M24114 35511
L24507 35511
" />
<path d="M24114 35669
L24114 35590
" />
<path d="M24114 35590
L24507 35590
" />
<path d="M24507 35590
L24507 35669
" />
<path d="M24507 35669
L24114 35669
" />
</g>
<g style="fill:#008484; fill-opacity:0.0; 
stroke:#008484; stroke-width:59.0551; stroke-opacity:1; 
stroke-linecap:round; stroke-linejoin:round;">
<path d="M24940 35944
L24940 35314
" />
<path d="M23681 35944
L23681 35314
" />
<path d="M24192 34645
L24429 34645
" />
<path d="M24192 36614
L24429 36614
" />
<circle cx="22204.7" cy="28385.8" r="239.479" /> 
<path d="M22440 25590
L22440 27952
" />
<path d="M22440 27952
L23622 27952
" />
<path d="M23622 27952
L23622 23228
" />
<path d="M23622 23228
L22440 23228
" />
<path d="M22440 23228
L22440 25590
" />
<path d="M26574 25196
L26771 25196
" />
<path d="M26771 25196
L26771 24803
" />
<path d="M26771 24803
L26574 24803
" />
<path d="M26574 24803
L26574 25196
" />
<path d="M26181 25196
L26377 25196
" />
<path d="M26377 25196
L26377 24803
" />
<path d="M26377 24803
L26181 24803
" />
<path d="M26181 24803
L26181 25196
" />
<path d="M25787 25196
L25984 25196
" />
<path d="M25984 25196
L25984 24803
" />
<path d="M25984 24803
L25787 24803
" />
<path d="M25787 24803
L25787 25196
" />
<path d="M25393 25196
L25590 25196
" />
<path d="M25590 25196
L25590 24803
" />
<path d="M25590 24803
L25393 24803
" />
<path d="M25393 24803
L25393 25196
" />
<path d="M25393 24015
L25000 24015
" />
<path d="M25000 24015
L25000 23622
" />
<path d="M25000 23622
L25393 23622
" />
<path d="M25393 23622
L25393 24015
" />
<path d="M26574 24015
L26968 24015
" />
<path d="M26968 24015
L26968 23228
" />
<path d="M26968 23228
L26574 23228
" />
<path d="M26574 23228
L26574 24015
" />
<path d="M26968 27559
L25000 27559
" />
<path d="M25000 27559
L25000 25590
" />
<path d="M25000 25590
L26968 25590
" />
<path d="M26968 25590
L26968 27559
" />
<path d="M21850 29468
L21850 21712
" />
<path d="M21850 21712
L28149 21712
" />
<path d="M28149 21712
L28149 29468
" />
<path d="M28149 29468
L21850 29468
" />
<path d="M22775 49015
L22775 48622
" />
<path d="M22106 48622
L22106 49015
" />
<path d="M22795 35433
L22795 35826
" />
<path d="M23464 35826
L23464 35433
" />
<path d="M25826 35826
L25826 35433
" />
<path d="M25157 35433
L25157 35826
" />
<path d="M26935 20935
L28935 20935
" />
<path d="M28935 20935
L28935 19935
" />
<path d="M28935 19935
L26935 19935
" />
<path d="M25935 19935
L26935 19935
" />
<path d="M26935 19935
L26935 20935
" />
<path d="M25935 19935
L25935 20935
" />
<path d="M25935 20935
L26935 20935
" />
<path d="M27037 38513
L26771 38513
" />
<path d="M27037 42588
L26771 42588
" />
<path d="M22962 42588
L23228 42588
" />
<path d="M22962 38513
L23228 38513
" />
<path d="M27037 38513
L27037 38779
" />
<path d="M22962 38513
L22962 38779
" />
<path d="M22962 42588
L22962 42322
" />
<path d="M27037 42588
L27037 42322
" />
<path d="M26771 38513
L26771 38011
" />
</g>
<g style="fill:#840000; fill-opacity:0.0; 
stroke:#840000; stroke-width:19.685; stroke-opacity:1; 
stroke-linecap:round; stroke-linejoin:round;">
</g>
<g style="fill:#840000; fill-opacity:1.0; 
stroke:#840000; stroke-width:19.685; stroke-opacity:1; 
stroke-linecap:round; stroke-linejoin:round;">
<polyline style="fill-rule:evenodd;"
points="22095,33507
22095,32847
22755,32847
22755,33507
22095,33507
" /> 
</g>
<g style="fill:#840000; fill-opacity:1.0; 
stroke:#840000; stroke-width:680; stroke-opacity:1; 
stroke-linecap:round; stroke-linejoin:round;">
</g>
<g style="fill:#840000; fill-opacity:0.0; 
stroke:#840000; stroke-width:680; stroke-opacity:1; 
stroke-linecap:round; stroke-linejoin:round;">
<path d="M22425 32177
L22425 32177
" />
<path d="M23425 33177
L23425 33177
" />
<path d="M23425 32177
L23425 32177
" />
<path d="M24425 33177
L24425 33177
" />
<path d="M24425 32177
L24425 32177
" />
</g>
<g style="fill:#840000; fill-opacity:0.0; 
stroke:#840000; stroke-width:19.685; stroke-opacity:1; 
stroke-linecap:round; stroke-linejoin:round;">
</g>
<g style="fill:#840000; fill-opacity:1.0; 
stroke:#840000; stroke-width:19.685; stroke-opacity:1; 
stroke-linecap:round; stroke-linejoin:round;">
<polyline style="fill-rule:evenodd;"
points="27765,50044
27765,50825
27104,50825
27104,50044
27765,50044
" /> 
</g>
<g style="fill:#840000; fill-opacity:1.0; 
stroke:#840000; stroke-width:680; stroke-opacity:1; 
stroke-linecap:round; stroke-linejoin:round;">
</g>
<g style="fill:#840000; fill-opacity:0.0; 
stroke:#840000; stroke-width:680; stroke-opacity:1; 
stroke-linecap:round; stroke-linejoin:round;">
<path d="M26435 50495
L26435 50375
" />
<path d="M25435 50495
L25435 50375
" />
<path d="M24435 50495
L24435 50375
" />
<path d="M23435 50495
L23435 50375
" />
<path d="M22435 50495
L22435 50375
" />
<path d="M26435 20375
L26435 20495
" />
<path d="M27435 20375
L27435 20495
" />
<path d="M28435 20375
L28435 20495
" />
</g> 
</svg>
